<svg xmlns="http://www.w3.org/2000/svg" version="1.1" xmlns:xlink="http://www.w3.org/1999/xlink" xmlns:svgjs="http://svgjs.dev/svgjs" width="1500" height="1177" viewBox="0 0 1500 1177"><g transform="matrix(1,0,0,1,-0.17746468340078536,-1.8983870967741723)"><svg viewBox="0 0 316 248" data-background-color="#ffffff" preserveAspectRatio="xMidYMid meet" height="1177" width="1500" xmlns="http://www.w3.org/2000/svg" xmlns:xlink="http://www.w3.org/1999/xlink"><g id="tight-bounds" transform="matrix(1,0,0,1,0.03738589330311015,0.4000000000000057)"><svg viewBox="0 0 315.9252282133938 247.2" height="247.2" width="315.9252282133938"><g><svg viewBox="0 0 395.52 309.48001384035996" height="247.2" width="315.9252282133938"><g transform="matrix(1,0,0,1,0,226.37405739674023)"><svg viewBox="0 0 395.52 83.10595644361973" height="83.10595644361973" width="395.52"><g id="textblocktransform"><svg viewBox="0 0 395.52 83.10595644361973" height="83.10595644361973" width="395.52" id="textblock"><g><svg viewBox="0 0 395.52 44.8233818050715" height="44.8233818050715" width="395.52"><g transform="matrix(1,0,0,1,0,0)"><svg width="395.52" viewBox="2.75 -37.65 416.02 47.15" height="44.8233818050715" data-palette-color="#aaaaaa"><path d="M23.9-23.55L23.9-23.55 24.05-27.5 28.8-27.5 28.8-3Q28.8 3.1 25.53 6.3 22.25 9.5 15.65 9.5L15.65 9.5Q12 9.5 9.33 8.5 6.65 7.5 5.13 5.53 3.6 3.55 3.4 0.6L3.4 0.6 8.65 0.6Q8.9 2.85 10.68 4.08 12.45 5.3 15.9 5.3L15.9 5.3Q19.8 5.3 21.78 3.3 23.75 1.3 23.75-2.4L23.75-2.4 23.75-6.05Q22.35-3.95 20.03-2.75 17.7-1.55 14.85-1.55L14.85-1.55Q11.3-1.55 8.58-3.25 5.85-4.95 4.3-7.98 2.75-11 2.75-14.8L2.75-14.8Q2.75-18.9 4.35-21.88 5.95-24.85 8.75-26.48 11.55-28.1 15.1-28.1L15.1-28.1Q17.95-28.1 20.25-26.85 22.55-25.6 23.9-23.55ZM15.95-5.5L15.95-5.5Q18.65-5.5 20.78-7.08 22.9-8.65 23.75-11.35L23.75-11.35 23.75-18.3Q22.9-21 20.78-22.58 18.65-24.15 15.95-24.15L15.95-24.15Q13.5-24.15 11.68-22.95 9.85-21.75 8.83-19.68 7.8-17.6 7.8-14.85L7.8-14.85Q7.8-12.15 8.83-10.03 9.85-7.9 11.68-6.7 13.5-5.5 15.95-5.5ZM61.3-15.7L56.25-15.7 56.25-19Q56.25-21.15 54.95-22.48 53.65-23.8 51.2-23.8L51.2-23.8Q48.1-23.8 45.65-21.48 43.2-19.15 41.75-14.4L41.75-14.4 41.05-19.5Q42.15-22.35 43.72-24.25 45.3-26.15 47.37-27.13 49.45-28.1 51.95-28.1L51.95-28.1Q56.1-28.1 58.7-25.73 61.3-23.35 61.3-19L61.3-19 61.3-15.7ZM42.7 0L37.65 0 37.65-27.5 42.4-27.5 42.7-21.25 42.7 0ZM93.25 0L88.45 0 88.25-6.25 88.25-18Q88.25-20.95 86.32-22.63 84.4-24.3 81.05-24.3L81.05-24.3Q77.8-24.3 75.75-22.83 73.7-21.35 73.5-18.75L73.5-18.75 68.55-18.75Q68.8-21.7 70.45-23.78 72.09-25.85 74.84-26.98 77.59-28.1 81.2-28.1L81.2-28.1Q84.9-28.1 87.59-26.88 90.3-25.65 91.77-23.35 93.25-21.05 93.25-17.75L93.25-17.75 93.25 0ZM78.5 0.6L78.5 0.6Q75.8 0.6 73.75-0.38 71.7-1.35 70.55-3.18 69.4-5 69.4-7.45L69.4-7.45Q69.4-11.7 72.67-14.05 75.95-16.4 81.84-16.4L81.84-16.4 88.9-16.4 88.9-12.65 81.65-12.65Q78.25-12.65 76.32-11.35 74.4-10.05 74.4-7.7L74.4-7.7Q74.4-5.75 75.77-4.65 77.15-3.55 79.5-3.55L79.5-3.55Q82.5-3.55 84.82-5.18 87.15-6.8 88.59-9.65L88.59-9.65 89.15-5.95Q87.84-2.8 85.15-1.1 82.45 0.6 78.5 0.6ZM115.34-28.1L115.34-28.1Q119.04-28.1 121.82-26.28 124.59-24.45 126.19-21.2 127.79-17.95 127.79-13.75L127.79-13.75Q127.79-9.6 126.19-6.35 124.59-3.1 121.82-1.25 119.04 0.6 115.34 0.6L115.34 0.6Q112.54 0.6 110.22-0.55 107.89-1.7 106.39-3.7L106.39-3.7 106.39 8.9 101.34 8.9 101.34-27.5 106.14-27.5 106.29-23.75Q107.79-25.75 110.14-26.93 112.49-28.1 115.34-28.1ZM114.24-3.65L114.24-3.65Q116.79-3.65 118.69-4.95 120.59-6.25 121.64-8.53 122.69-10.8 122.69-13.75L122.69-13.75Q122.69-16.75 121.64-19.03 120.59-21.3 118.69-22.58 116.79-23.85 114.24-23.85L114.24-23.85Q111.64-23.85 109.52-22.38 107.39-20.9 106.39-18.35L106.39-18.35 106.39-9.25Q107.39-6.65 109.52-5.15 111.64-3.65 114.24-3.65ZM158.69 0L153.64 0 153.64-17.3Q153.64-20.25 151.99-22.03 150.34-23.8 147.69-23.8L147.69-23.8Q144.64-23.8 142.27-21.58 139.89-19.35 138.49-14.65L138.49-14.65 137.69-20.25Q139.24-24.2 142.17-26.15 145.09-28.1 148.54-28.1L148.54-28.1Q151.64-28.1 153.92-26.78 156.19-25.45 157.44-23.08 158.69-20.7 158.69-17.5L158.69-17.5 158.69 0ZM139.09 0L134.04 0 134.04-36.8 139.09-36.8 139.09 0ZM212.89-28.1L212.89-28.1Q216.59-28.1 219.36-26.28 222.14-24.45 223.74-21.2 225.34-17.95 225.34-13.75L225.34-13.75Q225.34-9.6 223.74-6.35 222.14-3.1 219.36-1.25 216.59 0.6 212.89 0.6L212.89 0.6Q210.04 0.6 207.66-0.63 205.29-1.85 203.84-3.85L203.84-3.85 203.69 0 198.89 0 198.89-36.75 203.94-36.75 203.94-23.85Q205.39-25.85 207.74-26.98 210.09-28.1 212.89-28.1ZM211.79-3.65L211.79-3.65Q214.34-3.65 216.24-4.95 218.14-6.25 219.19-8.53 220.24-10.8 220.24-13.75L220.24-13.75Q220.24-16.75 219.19-19.03 218.14-21.3 216.24-22.58 214.34-23.85 211.79-23.85L211.79-23.85Q209.14-23.85 207.04-22.38 204.94-20.9 203.94-18.25L203.94-18.25 203.94-9.3Q204.94-6.7 207.04-5.18 209.14-3.65 211.79-3.65ZM231.03-27.5L236.08-27.5 236.08-10.15Q236.08-7.25 237.73-5.48 239.38-3.7 242.03-3.7L242.03-3.7Q245.08-3.7 247.46-5.93 249.83-8.15 251.23-12.85L251.23-12.85 252.03-7.2Q250.48-3.3 247.56-1.35 244.63 0.6 241.18 0.6L241.18 0.6Q238.08 0.6 235.81-0.73 233.53-2.05 232.28-4.4 231.03-6.75 231.03-9.95L231.03-9.95 231.03-27.5ZM250.63-27.5L255.68-27.5 255.68 0 250.88 0 250.63-6.2 250.63-27.5ZM279.03 0L273.98 0 273.98-27.5 279.03-27.5 279.03 0ZM288.48 0L263.83 0 263.83-4.1 288.48-4.1 288.48 0ZM276.48-23.4L267.48-23.4 267.48-27.5 276.48-27.5 276.48-23.4ZM279.28-32.2L273.63-32.2 273.63-37.65 279.28-37.65 279.28-32.2ZM311.28 0L306.23 0 306.23-36.75 311.28-36.75 311.28 0ZM321.48 0L296.08 0 296.08-4.1 321.48-4.1 321.48 0ZM308.73-32.65L299.73-32.65 299.73-36.75 308.73-36.75 308.73-32.65ZM339.78-28.1L339.78-28.1Q342.63-28.1 344.98-26.98 347.33-25.85 348.78-23.85L348.78-23.85 348.78-36.75 353.78-36.75 353.78 0 349.03 0 348.88-3.85Q347.43-1.85 345.05-0.63 342.68 0.6 339.78 0.6L339.78 0.6Q336.13 0.6 333.33-1.25 330.53-3.1 328.95-6.35 327.38-9.6 327.38-13.75L327.38-13.75Q327.38-17.95 328.95-21.2 330.53-24.45 333.33-26.28 336.13-28.1 339.78-28.1ZM340.88-3.65L340.88-3.65Q343.58-3.65 345.68-5.18 347.78-6.7 348.78-9.3L348.78-9.3 348.78-18.25Q347.78-20.9 345.68-22.38 343.58-23.85 340.88-23.85L340.88-23.85Q338.38-23.85 336.48-22.58 334.58-21.3 333.5-19.03 332.43-16.75 332.43-13.75L332.43-13.75Q332.43-10.8 333.5-8.53 334.58-6.25 336.48-4.95 338.38-3.65 340.88-3.65ZM374.02 0.6L374.02 0.6Q369.77 0.6 366.67-1.13 363.57-2.85 361.92-6.08 360.27-9.3 360.27-13.8L360.27-13.8Q360.27-18.3 361.95-21.5 363.62-24.7 366.75-26.4 369.87-28.1 374.22-28.1L374.22-28.1Q380.87-28.1 384.12-24.43 387.37-20.75 386.97-14.35L386.97-14.35 364.27-14.35 364.32-18.15 381.82-18.1Q381.62-20.75 379.52-22.35 377.42-23.95 374.22-23.95L374.22-23.95Q369.92-23.95 367.62-21.25 365.32-18.55 365.32-13.6L365.32-13.6Q365.32-10.65 366.35-8.38 367.37-6.1 369.32-4.85 371.27-3.6 374.02-3.6L374.02-3.6Q377.27-3.6 379.45-5.15 381.62-6.7 382.12-9.35L382.12-9.35 387.17-9.35Q386.52-4.7 383.02-2.05 379.52 0.6 374.02 0.6ZM418.77-15.7L413.72-15.7 413.72-19Q413.72-21.15 412.42-22.48 411.12-23.8 408.67-23.8L408.67-23.8Q405.57-23.8 403.12-21.48 400.67-19.15 399.22-14.4L399.22-14.4 398.52-19.5Q399.62-22.35 401.2-24.25 402.77-26.15 404.85-27.13 406.92-28.1 409.42-28.1L409.42-28.1Q413.57-28.1 416.17-25.73 418.77-23.35 418.77-19L418.77-19 418.77-15.7ZM400.17 0L395.12 0 395.12-27.5 399.87-27.5 400.17-21.25 400.17 0Z" opacity="1" transform="matrix(1,0,0,1,0,0)" fill="#aaaaaa" class="wordmark-text-0" data-fill-palette-color="primary" id="text-0"></path></svg></g></svg></g><g transform="matrix(1,0,0,1,0,55.40510648808556)"><svg viewBox="0 0 395.52 27.70084995553418" height="27.70084995553418" width="395.52"><g transform="matrix(1,0,0,1,0,0)"><svg width="395.52" viewBox="0.49 -35.01 642.8 45.019999999999996" height="27.70084995553418" data-palette-color="#aaaaaa"><path d="M3.76-35.01L11.5-7.69 11.6-6.4 11.69-7.69 19.46-35.01 22.71-35.01 12.4 0 10.74 0 0.49-35.01 3.76-35.01ZM40.47-31.01L36.98-31.01 36.98-35.01 40.47-35.01 40.47-31.01ZM40.23 0L37.22 0 37.22-25 40.23-25 40.23 0ZM74.45-6.35L74.45-6.35Q74.45-4.83 73.84-3.58 73.22-2.32 72.17-1.42 71.13-0.51 69.75-0.01 68.37 0.49 66.85 0.49L66.85 0.49 64.85 0.49Q63.34 0.49 61.96-0.09 60.58-0.66 59.54-1.66 58.5-2.66 57.88-4 57.26-5.35 57.26-6.86L57.26-6.86 57.26-7.86 60.26-8.35 60.26-6.69Q60.26-5.79 60.64-4.99 61.02-4.2 61.65-3.61 62.29-3.03 63.12-2.69 63.95-2.34 64.85-2.34L64.85-2.34 66.85-2.34Q67.76-2.34 68.59-2.61 69.42-2.88 70.06-3.38 70.71-3.88 71.09-4.59 71.47-5.3 71.47-6.2L71.47-6.2Q71.47-7.54 70.88-8.4 70.3-9.25 69.33-9.83 68.37-10.4 67.13-10.78 65.9-11.16 64.61-11.54 63.31-11.91 62.08-12.4 60.85-12.89 59.88-13.68 58.92-14.48 58.33-15.67 57.75-16.87 57.75-18.65L57.75-18.65Q57.75-20.17 58.33-21.42 58.92-22.68 59.92-23.58 60.92-24.49 62.25-24.99 63.58-25.49 65.09-25.49L65.09-25.49 66.85-25.49Q68.37-25.49 69.71-24.91 71.05-24.34 72.05-23.34 73.05-22.34 73.63-21 74.2-19.65 74.2-18.14L74.2-18.14 74.2-18.04 71.2-17.55 71.2-18.31Q71.2-19.21 70.86-20.01 70.51-20.8 69.93-21.39 69.34-21.97 68.55-22.31 67.76-22.66 66.85-22.66L66.85-22.66 65.09-22.66Q64.19-22.66 63.4-22.39 62.6-22.12 62.02-21.62 61.43-21.12 61.09-20.41 60.75-19.7 60.75-18.8L60.75-18.8Q60.75-17.5 61.34-16.69 61.92-15.87 62.89-15.31 63.85-14.75 65.08-14.37 66.32-13.99 67.6-13.59 68.88-13.18 70.11-12.67 71.34-12.16 72.31-11.35 73.27-10.55 73.86-9.34 74.45-8.13 74.45-6.35ZM106.93 0L105.93 0 104.27-2.54Q103.25-1.15 101.71-0.33 100.17 0.49 98.34 0.49L98.34 0.49 97.58 0.49Q96.07 0.49 94.72-0.09 93.38-0.66 92.38-1.66 91.38-2.66 90.81-4 90.23-5.35 90.23-6.86L90.23-6.86 90.23-25 93.24-25 93.24-6.69Q93.24-5.79 93.58-4.99 93.92-4.2 94.51-3.61 95.09-3.03 95.88-2.69 96.68-2.34 97.58-2.34L97.58-2.34 99.58-2.34Q100.49-2.34 101.28-2.69 102.07-3.03 102.66-3.61 103.25-4.2 103.59-4.99 103.93-5.79 103.93-6.69L103.93-6.69 103.93-25 106.93-25 106.93 0ZM139.66 0L138.66 0 137-2.49Q135.98-1.15 134.44-0.33 132.9 0.49 131.07 0.49L131.07 0.49 130.31 0.49Q128.8 0.49 127.46-0.09 126.11-0.66 125.11-1.66 124.11-2.66 123.54-4 122.96-5.35 122.96-6.86L122.96-6.86 122.96-7.1Q122.96-8.62 123.54-9.96 124.11-11.3 125.11-12.3 126.11-13.31 127.46-13.88 128.8-14.45 130.31-14.45L130.31-14.45 136.66-14.45 136.66-18.31Q136.66-19.21 136.32-20.01 135.98-20.8 135.39-21.39 134.8-21.97 134.01-22.31 133.22-22.66 132.31-22.66L132.31-22.66 130.56-22.66Q129.65-22.66 128.86-22.31 128.07-21.97 127.48-21.39 126.89-20.8 126.55-20.01 126.21-19.21 126.21-18.31L126.21-18.31 126.21-17.41 123.21-17.9 123.21-18.14Q123.21-19.65 123.78-21 124.35-22.34 125.36-23.34 126.36-24.34 127.7-24.91 129.04-25.49 130.56-25.49L130.56-25.49 132.31-25.49Q133.83-25.49 135.17-24.91 136.51-24.34 137.51-23.34 138.51-22.34 139.09-21 139.66-19.65 139.66-18.14L139.66-18.14 139.66 0ZM136.66-6.69L136.66-12.11 130.31-12.11Q129.41-12.11 128.61-11.77 127.82-11.43 127.24-10.83 126.65-10.23 126.31-9.44 125.97-8.64 125.97-7.74L125.97-7.74 125.97-6.69Q125.97-5.79 126.31-4.99 126.65-4.2 127.24-3.61 127.82-3.03 128.61-2.69 129.41-2.34 130.31-2.34L130.31-2.34 132.31-2.34Q133.22-2.34 134.01-2.69 134.8-3.03 135.39-3.61 135.98-4.2 136.32-4.99 136.66-5.79 136.66-6.69L136.66-6.69ZM159.7 0L156.69 0 156.69-35.01 159.7-35.01 159.7 0ZM180.98-31.01L177.49-31.01 177.49-35.01 180.98-35.01 180.98-31.01ZM180.73 0L177.73 0 177.73-25 180.73-25 180.73 0ZM213.46 0L196.76 0 196.76-1.34 209.36-22.14 197.25-22.14 197.25-25 213.46-25 213.46-23.66 200.87-2.86 213.46-2.86 213.46 0ZM245.19-6.86L245.19-6.86Q245.19-5.35 244.62-4 244.05-2.66 243.05-1.66 242.04-0.66 240.7-0.09 239.36 0.49 237.85 0.49L237.85 0.49 235.84 0.49Q234.33 0.49 232.99-0.09 231.64-0.66 230.64-1.66 229.64-2.66 229.07-4 228.49-5.35 228.49-6.86L228.49-6.86 228.49-18.14Q228.49-19.65 229.07-21 229.64-22.34 230.64-23.34 231.64-24.34 232.99-24.91 234.33-25.49 235.84-25.49L235.84-25.49 237.85-25.49Q239.36-25.49 240.7-24.91 242.04-24.34 243.05-23.34 244.05-22.34 244.62-21 245.19-19.65 245.19-18.14L245.19-18.14 245.19-12.26 231.5-12.26 231.5-6.69Q231.5-5.79 231.84-4.99 232.18-4.2 232.77-3.61 233.35-3.03 234.15-2.69 234.94-2.34 235.84-2.34L235.84-2.34 237.85-2.34Q238.75-2.34 239.54-2.69 240.34-3.03 240.92-3.61 241.51-4.2 241.85-4.99 242.19-5.79 242.19-6.69L242.19-6.69 242.19-8.35 245.19-7.86 245.19-6.86ZM242.19-14.6L242.19-18.31Q242.19-19.21 241.85-20.01 241.51-20.8 240.92-21.39 240.34-21.97 239.54-22.31 238.75-22.66 237.85-22.66L237.85-22.66 235.84-22.66Q234.94-22.66 234.15-22.31 233.35-21.97 232.77-21.39 232.18-20.8 231.84-20.01 231.5-19.21 231.5-18.31L231.5-18.31 231.5-14.6 242.19-14.6ZM301.94-35.01L292.95-16.75 292.95 0 289.81 0 289.81-16.7 280.75-35.01 284.14-35.01 291.34-20.46 298.55-35.01 301.94-35.01ZM330.67-6.86L330.67-6.86Q330.67-5.35 330.09-4 329.52-2.66 328.52-1.66 327.52-0.66 326.17-0.09 324.83 0.49 323.32 0.49L323.32 0.49 321.31 0.49Q319.8 0.49 318.46-0.09 317.12-0.66 316.11-1.66 315.11-2.66 314.54-4 313.97-5.35 313.97-6.86L313.97-6.86 313.97-18.14Q313.97-19.65 314.54-21 315.11-22.34 316.11-23.34 317.12-24.34 318.46-24.91 319.8-25.49 321.31-25.49L321.31-25.49 323.32-25.49Q324.83-25.49 326.17-24.91 327.52-24.34 328.52-23.34 329.52-22.34 330.09-21 330.67-19.65 330.67-18.14L330.67-18.14 330.67-6.86ZM327.66-6.69L327.66-18.31Q327.66-19.21 327.32-20.01 326.98-20.8 326.39-21.39 325.81-21.97 325.01-22.31 324.22-22.66 323.32-22.66L323.32-22.66 321.31-22.66Q320.41-22.66 319.62-22.31 318.82-21.97 318.24-21.39 317.65-20.8 317.31-20.01 316.97-19.21 316.97-18.31L316.97-18.31 316.97-6.69Q316.97-5.79 317.31-4.99 317.65-4.2 318.24-3.61 318.82-3.03 319.62-2.69 320.41-2.34 321.31-2.34L321.31-2.34 323.32-2.34Q324.22-2.34 325.01-2.69 325.81-3.03 326.39-3.61 326.98-4.2 327.32-4.99 327.66-5.79 327.66-6.69L327.66-6.69ZM363.4 0L362.4 0 360.73-2.54Q359.71-1.15 358.17-0.33 356.63 0.49 354.8 0.49L354.8 0.49 354.05 0.49Q352.53 0.49 351.19-0.09 349.85-0.66 348.85-1.66 347.84-2.66 347.27-4 346.7-5.35 346.7-6.86L346.7-6.86 346.7-25 349.7-25 349.7-6.69Q349.7-5.79 350.04-4.99 350.38-4.2 350.97-3.61 351.56-3.03 352.35-2.69 353.14-2.34 354.05-2.34L354.05-2.34 356.05-2.34Q356.95-2.34 357.74-2.69 358.54-3.03 359.12-3.61 359.71-4.2 360.05-4.99 360.39-5.79 360.39-6.69L360.39-6.69 360.39-25 363.4-25 363.4 0ZM389.78-22.14L386.78-22.14Q385.87-22.14 385.08-21.8 384.29-21.46 383.7-20.87 383.11-20.29 382.77-19.49 382.43-18.7 382.43-17.8L382.43-17.8 382.43 0 379.43 0 379.43-25 380.43-25 382.06-22.46Q383.09-23.85 384.64-24.67 386.19-25.49 388.02-25.49L388.02-25.49 389.78-25.49 389.78-22.14ZM429.48 0L426.33 0 426.33-35.01 429.48-35.01 429.48 0ZM463.21 0L460.21 0 460.21-18.31Q460.21-19.21 459.87-20.01 459.53-20.8 458.94-21.39 458.36-21.97 457.56-22.31 456.77-22.66 455.87-22.66L455.87-22.66 453.86-22.66Q452.96-22.66 452.17-22.31 451.37-21.97 450.79-21.39 450.2-20.8 449.86-20.01 449.52-19.21 449.52-18.31L449.52-18.31 449.52 0 446.52 0 446.52-25 447.52-25 449.15-22.46Q450.18-23.85 451.73-24.67 453.28-25.49 455.11-25.49L455.11-25.49 455.87-25.49Q457.38-25.49 458.72-24.91 460.07-24.34 461.07-23.34 462.07-22.34 462.64-21 463.21-19.65 463.21-18.14L463.21-18.14 463.21 0ZM496.43-6.35L496.43-6.35Q496.43-4.83 495.82-3.58 495.21-2.32 494.16-1.42 493.11-0.51 491.73-0.01 490.35 0.49 488.84 0.49L488.84 0.49 486.84 0.49Q485.32 0.49 483.95-0.09 482.57-0.66 481.53-1.66 480.49-2.66 479.87-4 479.25-5.35 479.25-6.86L479.25-6.86 479.25-7.86 482.25-8.35 482.25-6.69Q482.25-5.79 482.63-4.99 483.01-4.2 483.64-3.61 484.28-3.03 485.11-2.69 485.94-2.34 486.84-2.34L486.84-2.34 488.84-2.34Q489.74-2.34 490.57-2.61 491.4-2.88 492.05-3.38 492.7-3.88 493.08-4.59 493.45-5.3 493.45-6.2L493.45-6.2Q493.45-7.54 492.87-8.4 492.28-9.25 491.32-9.83 490.35-10.4 489.12-10.78 487.89-11.16 486.59-11.54 485.3-11.91 484.07-12.4 482.83-12.89 481.87-13.68 480.91-14.48 480.32-15.67 479.73-16.87 479.73-18.65L479.73-18.65Q479.73-20.17 480.32-21.42 480.91-22.68 481.91-23.58 482.91-24.49 484.24-24.99 485.57-25.49 487.08-25.49L487.08-25.49 488.84-25.49Q490.35-25.49 491.7-24.91 493.04-24.34 494.04-23.34 495.04-22.34 495.62-21 496.19-19.65 496.19-18.14L496.19-18.14 496.19-18.04 493.19-17.55 493.19-18.31Q493.19-19.21 492.84-20.01 492.5-20.8 491.92-21.39 491.33-21.97 490.54-22.31 489.74-22.66 488.84-22.66L488.84-22.66 487.08-22.66Q486.18-22.66 485.39-22.39 484.59-22.12 484.01-21.62 483.42-21.12 483.08-20.41 482.74-19.7 482.74-18.8L482.74-18.8Q482.74-17.5 483.32-16.69 483.91-15.87 484.87-15.31 485.84-14.75 487.07-14.37 488.3-13.99 489.59-13.59 490.87-13.18 492.1-12.67 493.33-12.16 494.3-11.35 495.26-10.55 495.85-9.34 496.43-8.13 496.43-6.35ZM516.47-31.01L512.98-31.01 512.98-35.01 516.47-35.01 516.47-31.01ZM516.22 0L513.22 0 513.22-25 516.22-25 516.22 0ZM550.2 3.15L550.2 3.15Q550.2 4.66 549.63 5.93 549.05 7.2 548.05 8.11 547.05 9.01 545.71 9.51 544.37 10.01 542.85 10.01L542.85 10.01 541.61 10.01Q540.09 10.01 538.75 9.51 537.41 9.01 536.41 8.11 535.41 7.2 534.83 5.93 534.26 4.66 534.26 3.15L534.26 3.15 534.26 3.05Q534.26 1.59 534.79 0.37 535.33-0.85 536.26-1.76L536.26-1.76Q535.09-2.47 534.39-3.67 533.7-4.88 533.7-6.35L533.7-6.35Q533.7-7.67 534.26-8.8 534.82-9.94 535.8-10.64L535.8-10.64Q534.62-11.67 533.94-13.11 533.26-14.55 533.26-16.26L533.26-16.26 533.26-18.14Q533.26-19.65 533.83-21 534.4-22.34 535.41-23.34 536.41-24.34 537.75-24.91 539.09-25.49 540.61-25.49L540.61-25.49 541.85-25.49Q543.68-25.49 545.23-24.67 546.78-23.85 547.81-22.46L547.81-22.46 549.44-25 550.44-25 550.44-16.26Q550.44-14.75 549.87-13.4 549.3-12.06 548.3-11.06 547.29-10.06 545.95-9.48 544.61-8.91 543.1-8.91L543.1-8.91 538.75-8.91Q538.24-8.91 537.77-8.7 537.31-8.5 536.96-8.15 536.6-7.81 536.41-7.34 536.21-6.86 536.21-6.35L536.21-6.35Q536.21-5.83 536.41-5.37 536.6-4.91 536.96-4.55 537.31-4.2 537.77-4 538.24-3.81 538.75-3.81L538.75-3.81 542.85-3.81Q544.37-3.81 545.71-3.31 547.05-2.81 548.05-1.9 549.05-1 549.63 0.27 550.2 1.54 550.2 3.05L550.2 3.05 550.2 3.15ZM547.47-16.09L547.47-18.31Q547.47-19.21 547.12-20.01 546.78-20.8 546.18-21.39 545.59-21.97 544.79-22.31 544-22.66 543.1-22.66L543.1-22.66 540.61-22.66Q539.7-22.66 538.91-22.31 538.12-21.97 537.53-21.39 536.94-20.8 536.6-20.01 536.26-19.21 536.26-18.31L536.26-18.31 536.26-16.09Q536.26-15.19 536.6-14.39 536.94-13.6 537.53-13.01 538.12-12.43 538.91-12.08 539.7-11.74 540.61-11.74L540.61-11.74 543.1-11.74Q544-11.74 544.79-12.08 545.59-12.43 546.18-13.01 546.78-13.6 547.12-14.39 547.47-15.19 547.47-16.09L547.47-16.09ZM547.34 3.3L547.34 2.91Q547.34 2 547 1.28 546.66 0.56 546.07 0.07 545.49-0.42 544.69-0.68 543.9-0.95 543-0.95L543-0.95 541.46-0.95Q540.56-0.95 539.76-0.68 538.97-0.42 538.38 0.07 537.8 0.56 537.46 1.28 537.11 2 537.11 2.91L537.11 2.91 537.11 3.3Q537.11 4.2 537.46 4.91 537.8 5.62 538.38 6.12 538.97 6.62 539.76 6.88 540.56 7.15 541.46 7.15L541.46 7.15 543 7.15Q543.9 7.15 544.69 6.88 545.49 6.62 546.07 6.12 546.66 5.62 547 4.91 547.34 4.2 547.34 3.3L547.34 3.3ZM582.69 0L579.68 0 579.68-18.31Q579.68-19.21 579.34-20.01 579-20.8 578.41-21.39 577.83-21.97 577.03-22.31 576.24-22.66 575.34-22.66L575.34-22.66 573.34-22.66Q572.43-22.66 571.64-22.31 570.85-21.97 570.26-21.39 569.67-20.8 569.33-20.01 568.99-19.21 568.99-18.31L568.99-18.31 568.99 0 565.99 0 565.99-35.01 568.99-35.01 568.99-22.9Q570.02-24.12 571.46-24.8 572.9-25.49 574.58-25.49L574.58-25.49 575.34-25.49Q576.85-25.49 578.19-24.91 579.54-24.34 580.54-23.34 581.54-22.34 582.11-21 582.69-19.65 582.69-18.14L582.69-18.14 582.69 0ZM610.56 0L607.82 0Q606.46 0 605.25-0.51 604.04-1.03 603.15-1.93 602.26-2.83 601.73-4.03 601.21-5.22 601.21-6.59L601.21-6.59 601.21-22.14 596.72-22.14 596.72-25 601.21-25 601.21-31.01 604.21-31.49 604.21-25 610.56-25 610.56-22.14 604.21-22.14 604.21-6.45Q604.21-5.69 604.49-5.04 604.77-4.39 605.26-3.91 605.75-3.42 606.41-3.14 607.07-2.86 607.82-2.86L607.82-2.86 610.56-2.86 610.56 0ZM643.29-6.35L643.29-6.35Q643.29-4.83 642.68-3.58 642.07-2.32 641.02-1.42 639.97-0.51 638.59-0.01 637.21 0.49 635.7 0.49L635.7 0.49 633.69 0.49Q632.18 0.49 630.8-0.09 629.42-0.66 628.38-1.66 627.35-2.66 626.72-4 626.1-5.35 626.1-6.86L626.1-6.86 626.1-7.86 629.1-8.35 629.1-6.69Q629.1-5.79 629.48-4.99 629.86-4.2 630.5-3.61 631.13-3.03 631.96-2.69 632.79-2.34 633.69-2.34L633.69-2.34 635.7-2.34Q636.6-2.34 637.43-2.61 638.26-2.88 638.91-3.38 639.55-3.88 639.93-4.59 640.31-5.3 640.31-6.2L640.31-6.2Q640.31-7.54 639.72-8.4 639.14-9.25 638.17-9.83 637.21-10.4 635.98-10.78 634.74-11.16 633.45-11.54 632.16-11.91 630.92-12.4 629.69-12.89 628.73-13.68 627.76-14.48 627.18-15.67 626.59-16.87 626.59-18.65L626.59-18.65Q626.59-20.17 627.18-21.42 627.76-22.68 628.76-23.58 629.76-24.49 631.09-24.99 632.42-25.49 633.94-25.49L633.94-25.49 635.7-25.49Q637.21-25.49 638.55-24.91 639.9-24.34 640.9-23.34 641.9-22.34 642.47-21 643.04-19.65 643.04-18.14L643.04-18.14 643.04-18.04 640.04-17.55 640.04-18.31Q640.04-19.21 639.7-20.01 639.36-20.8 638.77-21.39 638.19-21.97 637.39-22.31 636.6-22.66 635.7-22.66L635.7-22.66 633.94-22.66Q633.04-22.66 632.24-22.39 631.45-22.12 630.86-21.62 630.28-21.12 629.93-20.41 629.59-19.7 629.59-18.8L629.59-18.8Q629.59-17.5 630.18-16.69 630.76-15.87 631.73-15.31 632.69-14.75 633.93-14.37 635.16-13.99 636.44-13.59 637.72-13.18 638.96-12.67 640.19-12.16 641.15-11.35 642.12-10.55 642.7-9.34 643.29-8.13 643.29-6.35Z" opacity="1" transform="matrix(1,0,0,1,0,0)" fill="#aaaaaa" class="slogan-text-1" data-fill-palette-color="secondary" id="text-1"></path></svg></g></svg></g></svg></g></svg></g><g transform="matrix(1,0,0,1,95.15469598464394,0)"><svg viewBox="0 0 205.2106080307121 205.2106080307121" height="205.2106080307121" width="205.2106080307121"><g><svg></svg></g><g id="icon-0"><svg viewBox="0 0 205.2106080307121 205.2106080307121" height="205.2106080307121" width="205.2106080307121"><g><path d="M0 102.605c0-56.667 45.938-102.605 102.605-102.605 56.667 0 102.605 45.938 102.606 102.605 0 56.667-45.938 102.605-102.606 102.606-56.667 0-102.605-45.938-102.605-102.606zM102.605 201.168c54.435 0 98.563-44.128 98.563-98.563 0-54.435-44.128-98.563-98.563-98.563-54.435 0-98.563 44.128-98.563 98.563 0 54.435 44.128 98.563 98.563 98.563z" data-fill-palette-color="accent" fill="#aaaaaa" stroke="transparent"></path></g><g transform="matrix(1,0,0,1,40.60298850875218,43.46609647303341)"><svg viewBox="0 0 124.00463101320774 118.27841508464529" height="118.27841508464529" width="124.00463101320774"><g><svg xmlns="http://www.w3.org/2000/svg" xmlns:xlink="http://www.w3.org/1999/xlink" version="1.1" x="0" y="0" viewBox="14.638 14.616492856851206 65.43513385758168 62.41350714314879" enable-background="new 0 0 90 90" xml:space="preserve" height="118.27841508464529" width="124.00463101320774" class="icon-dxe-0" data-fill-palette-color="accent" id="dxe-0"><g fill="#aaaaaa" data-fill-palette-color="accent"><path d="M73.312 69.377H22.292V18.357A3.828 3.828 0 0 0 14.638 18.357V77.03H73.311A3.827 3.827 0 0 0 73.312 69.377" fill="#aaaaaa" data-fill-palette-color="accent"></path><path d="M78.952 26.052A3.825 3.825 0 0 0 73.541 26.052L54.862 44.729 44.735 34.602 30.229 49.109A3.825 3.825 0 0 0 32.934 55.641C33.913 55.641 34.892 55.267 35.639 54.52L44.734 45.425 54.861 55.552 78.951 31.464A3.825 3.825 0 0 0 78.952 26.052" fill="#aaaaaa" data-fill-palette-color="accent"></path></g></svg></g></svg></g></svg></g></svg></g><g></g></svg></g><defs></defs></svg><rect width="315.9252282133938" height="247.2" fill="none" stroke="none" visibility="hidden"></rect></g></svg></g></svg>